<mxfile host="app.diagrams.net" agent="Mozilla/5.0 (Macintosh; Intel Mac OS X 10_15_7) AppleWebKit/537.36 (KHTML, like Gecko) Chrome/130.0.0.0 Safari/537.36" version="24.7.8">
  <diagram name="Page-1" id="pEmYH1uOK-l2eU1a6_hx">
    <mxGraphModel dx="2389" dy="961" grid="1" gridSize="10" guides="1" tooltips="1" connect="1" arrows="1" fold="1" page="1" pageScale="1" pageWidth="827" pageHeight="1169" math="0" shadow="0">
      <root>
        <mxCell id="0" />
        <mxCell id="1" parent="0" />
        <mxCell id="Kftz2uMB-1DkZ9tyWTRJ-45" value="" style="endArrow=none;html=1;rounded=0;strokeWidth=3;strokeColor=#808080;" edge="1" parent="1" source="Kftz2uMB-1DkZ9tyWTRJ-4">
          <mxGeometry width="50" height="50" relative="1" as="geometry">
            <mxPoint x="80" y="749.5" as="sourcePoint" />
            <mxPoint x="720" y="749" as="targetPoint" />
          </mxGeometry>
        </mxCell>
        <mxCell id="Kftz2uMB-1DkZ9tyWTRJ-46" value="" style="endArrow=none;html=1;rounded=0;strokeWidth=3;strokeColor=#808080;" edge="1" parent="1" target="Kftz2uMB-1DkZ9tyWTRJ-4">
          <mxGeometry width="50" height="50" relative="1" as="geometry">
            <mxPoint x="80" y="749.5" as="sourcePoint" />
            <mxPoint x="720" y="749" as="targetPoint" />
          </mxGeometry>
        </mxCell>
        <mxCell id="Kftz2uMB-1DkZ9tyWTRJ-44" value="" style="endArrow=none;html=1;rounded=0;strokeWidth=3;strokeColor=#808080;" edge="1" parent="1" target="Kftz2uMB-1DkZ9tyWTRJ-3">
          <mxGeometry width="50" height="50" relative="1" as="geometry">
            <mxPoint x="80" y="619.69" as="sourcePoint" />
            <mxPoint x="320" y="620" as="targetPoint" />
          </mxGeometry>
        </mxCell>
        <mxCell id="Kftz2uMB-1DkZ9tyWTRJ-68" value="" style="endArrow=none;html=1;rounded=0;strokeWidth=3;strokeColor=#808080;" edge="1" parent="1" source="Kftz2uMB-1DkZ9tyWTRJ-3" target="Kftz2uMB-1DkZ9tyWTRJ-67">
          <mxGeometry width="50" height="50" relative="1" as="geometry">
            <mxPoint x="230" y="620" as="sourcePoint" />
            <mxPoint x="720" y="620" as="targetPoint" />
          </mxGeometry>
        </mxCell>
        <mxCell id="Kftz2uMB-1DkZ9tyWTRJ-43" value="" style="endArrow=none;html=1;rounded=0;strokeWidth=3;strokeColor=#808080;" edge="1" parent="1" source="Kftz2uMB-1DkZ9tyWTRJ-67">
          <mxGeometry width="50" height="50" relative="1" as="geometry">
            <mxPoint x="80" y="619.69" as="sourcePoint" />
            <mxPoint x="720" y="620" as="targetPoint" />
          </mxGeometry>
        </mxCell>
        <mxCell id="Kftz2uMB-1DkZ9tyWTRJ-81" value="" style="endArrow=none;html=1;rounded=0;strokeWidth=3;strokeColor=#808080;" edge="1" parent="1" source="Kftz2uMB-1DkZ9tyWTRJ-5" target="Kftz2uMB-1DkZ9tyWTRJ-80">
          <mxGeometry width="50" height="50" relative="1" as="geometry">
            <mxPoint x="130" y="490" as="sourcePoint" />
            <mxPoint x="720" y="490" as="targetPoint" />
          </mxGeometry>
        </mxCell>
        <mxCell id="Kftz2uMB-1DkZ9tyWTRJ-7" value="develop" style="text;html=1;align=right;verticalAlign=middle;whiteSpace=wrap;rounded=0;" vertex="1" parent="1">
          <mxGeometry x="10" y="475" width="60" height="30" as="geometry" />
        </mxCell>
        <mxCell id="Kftz2uMB-1DkZ9tyWTRJ-9" value="release/project" style="text;html=1;align=right;verticalAlign=middle;whiteSpace=wrap;rounded=0;" vertex="1" parent="1">
          <mxGeometry x="-60" y="350" width="130" height="30" as="geometry" />
        </mxCell>
        <mxCell id="Kftz2uMB-1DkZ9tyWTRJ-10" value="feature/project-001" style="text;html=1;align=right;verticalAlign=middle;whiteSpace=wrap;rounded=0;" vertex="1" parent="1">
          <mxGeometry x="-50" y="215" width="120" height="30" as="geometry" />
        </mxCell>
        <mxCell id="Kftz2uMB-1DkZ9tyWTRJ-11" value="release/devops-2X_XX" style="text;html=1;align=right;verticalAlign=middle;whiteSpace=wrap;rounded=0;" vertex="1" parent="1">
          <mxGeometry x="-60" y="605" width="130" height="30" as="geometry" />
        </mxCell>
        <mxCell id="Kftz2uMB-1DkZ9tyWTRJ-12" value="feature/devops-00" style="text;html=1;align=right;verticalAlign=middle;whiteSpace=wrap;rounded=0;" vertex="1" parent="1">
          <mxGeometry x="-60" y="735" width="130" height="30" as="geometry" />
        </mxCell>
        <mxCell id="Kftz2uMB-1DkZ9tyWTRJ-33" value="" style="endArrow=none;html=1;rounded=0;strokeWidth=3;strokeColor=#808080;" edge="1" parent="1" source="Kftz2uMB-1DkZ9tyWTRJ-19">
          <mxGeometry width="50" height="50" relative="1" as="geometry">
            <mxPoint x="80" y="229.41000000000003" as="sourcePoint" />
            <mxPoint x="720" y="229" as="targetPoint" />
          </mxGeometry>
        </mxCell>
        <mxCell id="Kftz2uMB-1DkZ9tyWTRJ-34" value="" style="endArrow=none;html=1;rounded=0;strokeWidth=3;strokeColor=#808080;" edge="1" parent="1" target="Kftz2uMB-1DkZ9tyWTRJ-19">
          <mxGeometry width="50" height="50" relative="1" as="geometry">
            <mxPoint x="80" y="229.41000000000003" as="sourcePoint" />
            <mxPoint x="720" y="229" as="targetPoint" />
          </mxGeometry>
        </mxCell>
        <mxCell id="Kftz2uMB-1DkZ9tyWTRJ-74" style="edgeStyle=orthogonalEdgeStyle;rounded=0;orthogonalLoop=1;jettySize=auto;html=1;entryX=0;entryY=0.5;entryDx=0;entryDy=0;curved=1;strokeWidth=2;endArrow=none;endFill=0;" edge="1" parent="1" source="Kftz2uMB-1DkZ9tyWTRJ-19" target="Kftz2uMB-1DkZ9tyWTRJ-72">
          <mxGeometry relative="1" as="geometry" />
        </mxCell>
        <mxCell id="Kftz2uMB-1DkZ9tyWTRJ-19" value="" style="ellipse;whiteSpace=wrap;html=1;aspect=fixed;fillColor=#b1ddf0;strokeColor=#10739e;" vertex="1" parent="1">
          <mxGeometry x="275" y="205" width="50" height="50" as="geometry" />
        </mxCell>
        <mxCell id="Kftz2uMB-1DkZ9tyWTRJ-36" value="" style="endArrow=none;html=1;rounded=0;strokeWidth=3;strokeColor=#808080;" edge="1" parent="1" source="Kftz2uMB-1DkZ9tyWTRJ-76">
          <mxGeometry width="50" height="50" relative="1" as="geometry">
            <mxPoint x="80" y="364.41" as="sourcePoint" />
            <mxPoint x="720" y="364" as="targetPoint" />
          </mxGeometry>
        </mxCell>
        <mxCell id="Kftz2uMB-1DkZ9tyWTRJ-37" value="" style="endArrow=none;html=1;rounded=0;strokeWidth=3;strokeColor=#808080;" edge="1" parent="1">
          <mxGeometry width="50" height="50" relative="1" as="geometry">
            <mxPoint x="80" y="364.41" as="sourcePoint" />
            <mxPoint x="220" y="365" as="targetPoint" />
          </mxGeometry>
        </mxCell>
        <mxCell id="Kftz2uMB-1DkZ9tyWTRJ-40" value="" style="endArrow=none;html=1;rounded=0;strokeWidth=3;strokeColor=#808080;" edge="1" parent="1" target="Kftz2uMB-1DkZ9tyWTRJ-1">
          <mxGeometry width="50" height="50" relative="1" as="geometry">
            <mxPoint x="220" y="365" as="sourcePoint" />
            <mxPoint x="720" y="364" as="targetPoint" />
          </mxGeometry>
        </mxCell>
        <mxCell id="Kftz2uMB-1DkZ9tyWTRJ-64" style="edgeStyle=orthogonalEdgeStyle;rounded=0;orthogonalLoop=1;jettySize=auto;html=1;entryX=0;entryY=0.5;entryDx=0;entryDy=0;strokeWidth=2;endArrow=none;endFill=0;curved=1;" edge="1" parent="1" source="Kftz2uMB-1DkZ9tyWTRJ-1" target="Kftz2uMB-1DkZ9tyWTRJ-19">
          <mxGeometry relative="1" as="geometry" />
        </mxCell>
        <mxCell id="Kftz2uMB-1DkZ9tyWTRJ-1" value="" style="ellipse;whiteSpace=wrap;html=1;aspect=fixed;fillColor=#0050ef;fontColor=#ffffff;strokeColor=#001DBC;" vertex="1" parent="1">
          <mxGeometry x="180" y="340" width="50" height="50" as="geometry" />
        </mxCell>
        <mxCell id="Kftz2uMB-1DkZ9tyWTRJ-41" value="" style="endArrow=none;html=1;rounded=0;strokeWidth=3;strokeColor=#808080;" edge="1" parent="1" source="Kftz2uMB-1DkZ9tyWTRJ-80">
          <mxGeometry width="50" height="50" relative="1" as="geometry">
            <mxPoint x="80" y="489.69000000000005" as="sourcePoint" />
            <mxPoint x="720" y="490" as="targetPoint" />
          </mxGeometry>
        </mxCell>
        <mxCell id="Kftz2uMB-1DkZ9tyWTRJ-42" value="" style="endArrow=none;html=1;rounded=0;strokeWidth=3;strokeColor=#808080;" edge="1" parent="1" target="Kftz2uMB-1DkZ9tyWTRJ-5">
          <mxGeometry width="50" height="50" relative="1" as="geometry">
            <mxPoint x="80" y="489.69000000000005" as="sourcePoint" />
            <mxPoint x="720" y="490" as="targetPoint" />
          </mxGeometry>
        </mxCell>
        <mxCell id="Kftz2uMB-1DkZ9tyWTRJ-47" style="edgeStyle=orthogonalEdgeStyle;rounded=0;orthogonalLoop=1;jettySize=auto;html=1;entryX=0;entryY=0.5;entryDx=0;entryDy=0;strokeWidth=2;fillColor=#0050ef;strokeColor=#000000;curved=1;endArrow=none;endFill=0;" edge="1" parent="1" source="Kftz2uMB-1DkZ9tyWTRJ-5" target="Kftz2uMB-1DkZ9tyWTRJ-3">
          <mxGeometry relative="1" as="geometry" />
        </mxCell>
        <mxCell id="Kftz2uMB-1DkZ9tyWTRJ-49" style="edgeStyle=orthogonalEdgeStyle;rounded=0;orthogonalLoop=1;jettySize=auto;html=1;entryX=0;entryY=0.5;entryDx=0;entryDy=0;curved=1;strokeWidth=2;endArrow=none;endFill=0;" edge="1" parent="1" source="Kftz2uMB-1DkZ9tyWTRJ-5" target="Kftz2uMB-1DkZ9tyWTRJ-1">
          <mxGeometry relative="1" as="geometry" />
        </mxCell>
        <mxCell id="Kftz2uMB-1DkZ9tyWTRJ-5" value="" style="ellipse;whiteSpace=wrap;html=1;aspect=fixed;fillColor=#008a00;fontColor=#ffffff;strokeColor=#005700;" vertex="1" parent="1">
          <mxGeometry x="80" y="465" width="50" height="50" as="geometry" />
        </mxCell>
        <mxCell id="Kftz2uMB-1DkZ9tyWTRJ-65" style="edgeStyle=orthogonalEdgeStyle;rounded=0;orthogonalLoop=1;jettySize=auto;html=1;entryX=0;entryY=0.5;entryDx=0;entryDy=0;strokeWidth=2;endArrow=none;endFill=0;curved=1;" edge="1" parent="1" source="Kftz2uMB-1DkZ9tyWTRJ-3" target="Kftz2uMB-1DkZ9tyWTRJ-4">
          <mxGeometry relative="1" as="geometry" />
        </mxCell>
        <mxCell id="Kftz2uMB-1DkZ9tyWTRJ-3" value="" style="ellipse;whiteSpace=wrap;html=1;aspect=fixed;fillColor=#6a00ff;strokeColor=#3700CC;fontColor=#ffffff;" vertex="1" parent="1">
          <mxGeometry x="180" y="595" width="50" height="50" as="geometry" />
        </mxCell>
        <mxCell id="Kftz2uMB-1DkZ9tyWTRJ-69" style="edgeStyle=orthogonalEdgeStyle;rounded=0;orthogonalLoop=1;jettySize=auto;html=1;entryX=0;entryY=0.5;entryDx=0;entryDy=0;strokeWidth=2;endArrow=none;endFill=0;curved=1;" edge="1" parent="1" source="Kftz2uMB-1DkZ9tyWTRJ-4" target="Kftz2uMB-1DkZ9tyWTRJ-67">
          <mxGeometry relative="1" as="geometry" />
        </mxCell>
        <mxCell id="Kftz2uMB-1DkZ9tyWTRJ-4" value="" style="ellipse;whiteSpace=wrap;html=1;aspect=fixed;fillColor=#d0cee2;strokeColor=#56517e;" vertex="1" parent="1">
          <mxGeometry x="275" y="725" width="50" height="50" as="geometry" />
        </mxCell>
        <mxCell id="Kftz2uMB-1DkZ9tyWTRJ-71" style="edgeStyle=orthogonalEdgeStyle;rounded=0;orthogonalLoop=1;jettySize=auto;html=1;entryX=0;entryY=0.5;entryDx=0;entryDy=0;curved=1;strokeWidth=2;endArrow=none;endFill=0;" edge="1" parent="1" source="Kftz2uMB-1DkZ9tyWTRJ-67" target="Kftz2uMB-1DkZ9tyWTRJ-70">
          <mxGeometry relative="1" as="geometry" />
        </mxCell>
        <mxCell id="Kftz2uMB-1DkZ9tyWTRJ-67" value="" style="ellipse;whiteSpace=wrap;html=1;aspect=fixed;fillColor=#6a00ff;strokeColor=#3700CC;fontColor=#ffffff;" vertex="1" parent="1">
          <mxGeometry x="370" y="595" width="50" height="50" as="geometry" />
        </mxCell>
        <mxCell id="Kftz2uMB-1DkZ9tyWTRJ-73" value="" style="endArrow=none;html=1;rounded=0;strokeWidth=3;strokeColor=#808080;" edge="1" parent="1" source="Kftz2uMB-1DkZ9tyWTRJ-1" target="Kftz2uMB-1DkZ9tyWTRJ-72">
          <mxGeometry width="50" height="50" relative="1" as="geometry">
            <mxPoint x="230" y="365" as="sourcePoint" />
            <mxPoint x="720" y="364" as="targetPoint" />
          </mxGeometry>
        </mxCell>
        <mxCell id="Kftz2uMB-1DkZ9tyWTRJ-72" value="" style="ellipse;whiteSpace=wrap;html=1;aspect=fixed;fillColor=#0050ef;fontColor=#ffffff;strokeColor=#001DBC;" vertex="1" parent="1">
          <mxGeometry x="370" y="340" width="50" height="50" as="geometry" />
        </mxCell>
        <mxCell id="Kftz2uMB-1DkZ9tyWTRJ-77" value="" style="endArrow=none;html=1;rounded=0;strokeWidth=3;strokeColor=#808080;" edge="1" parent="1" source="Kftz2uMB-1DkZ9tyWTRJ-72" target="Kftz2uMB-1DkZ9tyWTRJ-76">
          <mxGeometry width="50" height="50" relative="1" as="geometry">
            <mxPoint x="420" y="365" as="sourcePoint" />
            <mxPoint x="720" y="364" as="targetPoint" />
          </mxGeometry>
        </mxCell>
        <mxCell id="Kftz2uMB-1DkZ9tyWTRJ-76" value="" style="ellipse;whiteSpace=wrap;html=1;aspect=fixed;fillColor=#0050ef;fontColor=#ffffff;strokeColor=#001DBC;" vertex="1" parent="1">
          <mxGeometry x="560" y="340" width="50" height="50" as="geometry" />
        </mxCell>
        <mxCell id="Kftz2uMB-1DkZ9tyWTRJ-80" value="" style="ellipse;whiteSpace=wrap;html=1;aspect=fixed;fillColor=#008a00;fontColor=#ffffff;strokeColor=#005700;" vertex="1" parent="1">
          <mxGeometry x="650" y="465" width="50" height="50" as="geometry" />
        </mxCell>
        <mxCell id="Kftz2uMB-1DkZ9tyWTRJ-70" value="" style="ellipse;whiteSpace=wrap;html=1;aspect=fixed;fillColor=#008a00;fontColor=#ffffff;strokeColor=#005700;" vertex="1" parent="1">
          <mxGeometry x="470" y="465" width="50" height="50" as="geometry" />
        </mxCell>
        <mxCell id="Kftz2uMB-1DkZ9tyWTRJ-75" style="edgeStyle=orthogonalEdgeStyle;rounded=0;orthogonalLoop=1;jettySize=auto;html=1;entryX=0;entryY=0.5;entryDx=0;entryDy=0;curved=1;strokeWidth=2;endArrow=none;endFill=0;" edge="1" parent="1" source="Kftz2uMB-1DkZ9tyWTRJ-70" target="Kftz2uMB-1DkZ9tyWTRJ-76">
          <mxGeometry relative="1" as="geometry">
            <mxPoint x="550" y="400" as="targetPoint" />
          </mxGeometry>
        </mxCell>
        <mxCell id="Kftz2uMB-1DkZ9tyWTRJ-82" style="edgeStyle=orthogonalEdgeStyle;rounded=0;orthogonalLoop=1;jettySize=auto;html=1;entryX=0;entryY=0.5;entryDx=0;entryDy=0;curved=1;strokeWidth=2;endArrow=none;endFill=0;" edge="1" parent="1" source="Kftz2uMB-1DkZ9tyWTRJ-76" target="Kftz2uMB-1DkZ9tyWTRJ-80">
          <mxGeometry relative="1" as="geometry" />
        </mxCell>
        <mxCell id="Kftz2uMB-1DkZ9tyWTRJ-85" value="DevOps Release&lt;div&gt;(Repeats every sprint)&lt;/div&gt;" style="shape=note;size=15;align=left;spacingLeft=10;html=1;whiteSpace=wrap;" vertex="1" parent="1">
          <mxGeometry x="225" y="800" width="150" height="40" as="geometry" />
        </mxCell>
        <mxCell id="Kftz2uMB-1DkZ9tyWTRJ-86" value="" style="edgeStyle=none;endArrow=none;exitX=0;exitY=0;dashed=1;html=1;rounded=0;entryX=0.5;entryY=1;entryDx=0;entryDy=0;exitDx=0;exitDy=0;exitPerimeter=0;" edge="1" source="Kftz2uMB-1DkZ9tyWTRJ-85" parent="1" target="Kftz2uMB-1DkZ9tyWTRJ-3">
          <mxGeometry x="1" relative="1" as="geometry">
            <mxPoint x="450" y="470" as="targetPoint" />
          </mxGeometry>
        </mxCell>
        <mxCell id="Kftz2uMB-1DkZ9tyWTRJ-87" value="" style="edgeStyle=none;endArrow=none;exitX=0;exitY=0;dashed=1;html=1;rounded=0;entryX=0.5;entryY=1;entryDx=0;entryDy=0;exitDx=135;exitDy=0;exitPerimeter=0;" edge="1" source="Kftz2uMB-1DkZ9tyWTRJ-85" parent="1" target="Kftz2uMB-1DkZ9tyWTRJ-67">
          <mxGeometry x="1" relative="1" as="geometry">
            <mxPoint x="610" y="470" as="targetPoint" />
          </mxGeometry>
        </mxCell>
        <mxCell id="Kftz2uMB-1DkZ9tyWTRJ-93" value="Project Release&amp;nbsp;&lt;div&gt;(DevOps Freeze)&lt;/div&gt;" style="shape=note;size=15;align=left;spacingLeft=10;html=1;whiteSpace=wrap;" vertex="1" parent="1">
          <mxGeometry x="520" y="565" width="150" height="40" as="geometry" />
        </mxCell>
        <mxCell id="Kftz2uMB-1DkZ9tyWTRJ-94" value="" style="edgeStyle=none;endArrow=none;exitX=0;exitY=0;dashed=1;html=1;rounded=0;entryX=0.5;entryY=1;entryDx=0;entryDy=0;exitDx=0;exitDy=0;exitPerimeter=0;" edge="1" source="Kftz2uMB-1DkZ9tyWTRJ-93" parent="1" target="Kftz2uMB-1DkZ9tyWTRJ-70">
          <mxGeometry x="1" relative="1" as="geometry">
            <mxPoint x="540" y="525" as="targetPoint" />
          </mxGeometry>
        </mxCell>
        <mxCell id="Kftz2uMB-1DkZ9tyWTRJ-95" value="" style="edgeStyle=none;endArrow=none;exitX=0;exitY=0;dashed=1;html=1;rounded=0;entryX=0.5;entryY=1;entryDx=0;entryDy=0;exitDx=135;exitDy=0;exitPerimeter=0;" edge="1" source="Kftz2uMB-1DkZ9tyWTRJ-93" parent="1" target="Kftz2uMB-1DkZ9tyWTRJ-80">
          <mxGeometry x="1" relative="1" as="geometry">
            <mxPoint x="700" y="525" as="targetPoint" />
          </mxGeometry>
        </mxCell>
        <mxCell id="Kftz2uMB-1DkZ9tyWTRJ-96" value="Project Sprint&lt;div&gt;(Repeats until release)&lt;/div&gt;" style="shape=note;size=15;align=left;spacingLeft=10;html=1;whiteSpace=wrap;" vertex="1" parent="1">
          <mxGeometry x="225" y="140" width="150" height="40" as="geometry" />
        </mxCell>
        <mxCell id="Kftz2uMB-1DkZ9tyWTRJ-97" value="" style="edgeStyle=none;endArrow=none;exitX=0;exitY=1;dashed=1;html=1;rounded=0;entryX=0.5;entryY=0;entryDx=0;entryDy=0;exitDx=0;exitDy=0;exitPerimeter=0;" edge="1" source="Kftz2uMB-1DkZ9tyWTRJ-96" parent="1" target="Kftz2uMB-1DkZ9tyWTRJ-1">
          <mxGeometry x="1" relative="1" as="geometry">
            <mxPoint x="230" y="100" as="targetPoint" />
          </mxGeometry>
        </mxCell>
        <mxCell id="Kftz2uMB-1DkZ9tyWTRJ-98" value="" style="edgeStyle=none;endArrow=none;exitX=1;exitY=1;dashed=1;html=1;rounded=0;exitDx=0;exitDy=0;exitPerimeter=0;entryX=0.5;entryY=0;entryDx=0;entryDy=0;" edge="1" source="Kftz2uMB-1DkZ9tyWTRJ-96" parent="1" target="Kftz2uMB-1DkZ9tyWTRJ-72">
          <mxGeometry x="1" relative="1" as="geometry">
            <mxPoint x="390" y="100" as="targetPoint" />
          </mxGeometry>
        </mxCell>
      </root>
    </mxGraphModel>
  </diagram>
</mxfile>
